<svg width="618" height="137" viewBox="0 0 618 137" fill="none" xmlns="http://www.w3.org/2000/svg">
<path d="M590.733 76.4692C595.478 76.4692 599.546 77.2692 602.935 78.869C606.352 80.4689 609.145 82.6789 611.314 85.499C613.483 88.292 615.083 91.5053 616.114 95.139C617.144 98.7454 617.659 102.582 617.659 106.65C617.659 110.717 617.131 114.568 616.073 118.202C615.043 121.808 613.443 125.008 611.273 127.801C609.104 130.594 606.311 132.79 602.894 134.39C599.505 135.99 595.451 136.79 590.733 136.79C586.014 136.79 581.947 135.99 578.53 134.39C575.141 132.79 572.348 130.594 570.151 127.801C567.955 125.008 566.328 121.808 565.27 118.202C564.24 114.568 563.725 110.717 563.725 106.65C563.725 102.582 564.24 98.7454 565.27 95.139C566.328 91.5053 567.941 88.292 570.111 85.499C572.307 82.6789 575.1 80.4689 578.49 78.869C581.906 77.2692 585.987 76.4692 590.733 76.4692ZM590.733 87.2887C587.858 87.2887 585.336 88.0073 583.167 89.4445C581.025 90.8545 579.357 92.9967 578.164 95.8711C576.971 98.7183 576.374 102.311 576.374 106.65C576.374 110.989 576.957 114.595 578.123 117.469C579.317 120.317 580.984 122.459 583.126 123.896C585.296 125.306 587.831 126.011 590.733 126.011C593.661 126.011 596.197 125.306 598.339 123.896C600.481 122.459 602.135 120.317 603.301 117.469C604.494 114.595 605.091 110.989 605.091 106.65C605.091 102.311 604.494 98.7183 603.301 95.8711C602.108 92.9967 600.427 90.8545 598.257 89.4445C596.115 88.0073 593.607 87.2887 590.733 87.2887Z" fill="white"/>
<path d="M521.663 106.65C521.663 110.717 522.164 114.202 523.168 117.103C524.198 120.005 525.717 122.228 527.723 123.774C529.757 125.32 532.265 126.092 535.248 126.092C537.553 126.092 539.546 125.645 541.227 124.75C542.936 123.828 544.305 122.581 545.336 121.008C546.253 119.607 546.891 118.035 547.25 116.29C547.326 115.917 547.651 115.643 548.031 115.647L559.671 115.792C560.106 115.797 560.451 116.163 560.412 116.596C560.192 119.099 559.505 121.492 558.351 123.774C557.104 126.296 555.369 128.533 553.145 130.485C550.922 132.438 548.305 133.983 545.295 135.122C542.285 136.234 538.963 136.79 535.33 136.79C529.852 136.79 525.161 135.543 521.256 133.048C517.351 130.526 514.355 127.014 512.267 122.513C510.179 117.985 509.135 112.697 509.135 106.65C509.135 100.603 510.179 95.3288 512.267 90.8274C514.355 86.299 517.351 82.7738 521.256 80.252C525.161 77.7302 529.852 76.4692 535.33 76.4692C538.963 76.4692 542.285 77.0387 545.295 78.1776C548.305 79.2894 550.922 80.8214 553.145 82.7738C555.369 84.7262 557.104 86.9633 558.351 89.4852C559.505 91.7677 560.192 94.1613 560.413 96.666C560.451 97.0981 560.107 97.463 559.673 97.4697L548.033 97.6505C547.652 97.6564 547.326 97.3814 547.249 97.0082C546.891 95.2641 546.253 93.6919 545.336 92.2917C544.305 90.6918 542.936 89.4445 541.227 88.5496C539.546 87.6277 537.553 87.1667 535.248 87.1667C532.265 87.1667 529.757 87.9395 527.723 89.4852C525.717 91.0308 524.198 93.2679 523.168 96.1965C522.164 99.098 521.663 102.582 521.663 106.65Z" fill="white"/>
<path d="M494.504 107.909C494.789 107.909 495.05 108.067 495.183 108.319L509.343 135.215C509.612 135.727 509.242 136.341 508.664 136.341H498.095C497.799 136.341 497.53 136.17 497.403 135.903L484.589 109.007C484.347 108.497 484.718 107.909 485.282 107.909H494.504ZM474.264 135.573C474.264 135.997 473.92 136.341 473.496 136.341H462.503C462.079 136.341 461.736 135.997 461.736 135.573V77.6416C461.736 77.2177 462.079 76.874 462.503 76.874H486.222C492.866 76.874 497.923 78.501 501.394 81.755C504.892 84.9819 506.641 89.6188 506.641 95.6658C506.641 101.74 504.892 106.404 501.394 109.658C497.923 112.912 492.866 114.539 486.222 114.539H475.031C474.607 114.539 474.264 114.882 474.264 115.306V135.573ZM475.031 87.6122C474.607 87.6122 474.264 87.9558 474.264 88.3797V103.033C474.264 103.457 474.607 103.801 475.031 103.801H485.897C488.635 103.801 490.696 103.082 492.079 101.645C493.462 100.208 494.154 98.2147 494.154 95.6658C494.154 93.1168 493.462 91.1373 492.079 89.7272C490.696 88.3172 488.635 87.6122 485.897 87.6122H475.031Z" fill="white"/>
<path d="M422.628 122.592C422.299 122.592 422.006 122.803 421.901 123.115L417.616 135.818C417.511 136.13 417.219 136.341 416.889 136.341H405.157C404.623 136.341 404.252 135.81 404.436 135.309L425.635 77.3778C425.746 77.0752 426.034 76.874 426.356 76.874H438.908C439.231 76.874 439.519 77.0759 439.629 77.3791L460.71 135.31C460.892 135.811 460.521 136.341 459.988 136.341H448.294C447.965 136.341 447.672 136.13 447.567 135.818L443.282 123.115C443.177 122.803 442.884 122.592 442.555 122.592H422.628ZM425.598 111.814C425.428 112.312 425.798 112.83 426.324 112.83H438.903C439.429 112.83 439.799 112.314 439.63 111.817L433.376 93.3648C433.14 92.6712 432.16 92.6695 431.923 93.3624L425.598 111.814Z" fill="white"/>
<path d="M349.708 135.573C349.708 135.997 349.364 136.341 348.94 136.341H337.988C337.564 136.341 337.22 135.997 337.22 135.573V77.6416C337.22 77.2177 337.564 76.874 337.988 76.874H351.338C351.655 76.874 351.939 77.0685 352.054 77.3637L369.494 122.26C369.747 122.912 370.67 122.913 370.924 122.261L388.443 77.3626C388.558 77.068 388.842 76.874 389.158 76.874H402.631C403.055 76.874 403.398 77.2177 403.398 77.6416V135.573C403.398 135.997 403.055 136.341 402.631 136.341H391.638C391.214 136.341 390.87 135.997 390.87 135.573V101.478C390.87 100.624 389.685 100.408 389.384 101.208L376.374 135.843C376.261 136.142 375.975 136.341 375.655 136.341H364.682C364.36 136.341 364.073 136.14 363.962 135.839L351.195 101.315C350.898 100.512 349.708 100.725 349.708 101.581V135.573Z" fill="white"/>
<path d="M276.851 135.573C276.851 135.997 276.508 136.341 276.084 136.341H265.132C264.708 136.341 264.364 135.997 264.364 135.573V77.6416C264.364 77.2177 264.708 76.874 265.132 76.874H278.482C278.799 76.874 279.083 77.0685 279.197 77.3637L296.638 122.26C296.891 122.912 297.814 122.913 298.068 122.261L315.586 77.3626C315.701 77.068 315.985 76.874 316.302 76.874H329.774C330.198 76.874 330.542 77.2177 330.542 77.6416V135.573C330.542 135.997 330.198 136.341 329.774 136.341H318.782C318.358 136.341 318.014 135.997 318.014 135.573V101.478C318.014 100.624 316.829 100.408 316.528 101.208L303.518 135.843C303.405 136.142 303.119 136.341 302.799 136.341H291.825C291.504 136.341 291.217 136.14 291.106 135.839L278.339 101.315C278.042 100.512 276.851 100.725 276.851 101.581V135.573Z" fill="white"/>
<path d="M225.132 122.592C224.802 122.592 224.51 122.803 224.405 123.115L220.12 135.818C220.015 136.13 219.722 136.341 219.393 136.341H207.66C207.127 136.341 206.756 135.81 206.939 135.309L228.138 77.3778C228.249 77.0752 228.537 76.874 228.859 76.874H241.411C241.734 76.874 242.022 77.0759 242.133 77.3791L263.213 135.31C263.395 135.811 263.024 136.341 262.492 136.341H250.798C250.468 136.341 250.176 136.13 250.07 135.818L245.786 123.115C245.68 122.803 245.388 122.592 245.058 122.592H225.132ZM228.102 111.814C227.931 112.312 228.301 112.83 228.828 112.83H241.407C241.932 112.83 242.303 112.314 242.134 111.817L235.879 93.3648C235.644 92.6712 234.663 92.6695 234.426 93.3624L228.102 111.814Z" fill="white"/>
<path d="M164.104 117.093C164.098 116.78 164.29 116.498 164.58 116.381L169.898 114.24C170.08 114.166 170.283 114.165 170.466 114.238L175.898 116.383C176.191 116.498 176.381 116.782 176.392 117.097C176.454 118.905 176.845 120.452 177.563 121.74C178.349 123.15 179.515 124.221 181.061 124.954C182.606 125.659 184.518 126.011 186.796 126.011C188.531 126.011 190.063 125.781 191.392 125.32C192.721 124.832 193.765 124.113 194.524 123.164C195.31 122.215 195.704 121.022 195.704 119.584C195.704 118.012 195.094 116.724 193.873 115.72C192.68 114.717 191.257 113.917 189.602 113.321C187.975 112.724 186.498 112.236 185.169 111.856C182.972 111.233 180.722 110.487 178.417 109.619C176.139 108.724 174.024 107.585 172.072 106.202C170.119 104.82 168.533 103.098 167.313 101.037C166.12 98.9488 165.523 96.427 165.523 93.4713C165.523 89.8377 166.404 86.7599 168.167 84.2381C169.929 81.6892 172.289 79.7639 175.244 78.4623C178.2 77.1336 181.481 76.4692 185.088 76.4692C189.616 76.4692 193.534 77.2692 196.843 78.869C200.178 80.4418 202.74 82.6654 204.53 85.5397C206.273 88.2979 207.18 91.5181 207.251 95.2003C207.256 95.4872 207.095 95.7505 206.84 95.8823L201.46 98.6644C201.24 98.7785 200.977 98.7788 200.756 98.6652L195.347 95.882C195.092 95.7504 194.933 95.4869 194.922 95.1995C194.865 93.6879 194.529 92.3661 193.914 91.2342C193.236 89.9597 192.219 88.9835 190.863 88.3056C189.535 87.6006 187.894 87.2481 185.942 87.2481C184.342 87.2481 182.932 87.4921 181.712 87.9802C180.491 88.4412 179.542 89.1326 178.864 90.0546C178.186 90.9495 177.847 92.0477 177.847 93.3493C177.847 94.9491 178.471 96.2643 179.718 97.2947C180.993 98.298 182.484 99.098 184.193 99.6945C185.901 100.291 187.433 100.793 188.789 101.199C190.958 101.796 193.168 102.555 195.419 103.477C197.697 104.372 199.785 105.525 201.683 106.935C203.581 108.345 205.113 110.094 206.279 112.182C207.445 114.27 208.028 116.791 208.028 119.747C208.028 122.703 207.445 125.252 206.279 127.394C205.113 129.536 203.54 131.299 201.561 132.682C199.581 134.065 197.358 135.095 194.89 135.773C192.423 136.451 189.887 136.79 187.284 136.79C182.647 136.79 178.593 136.031 175.122 134.512C171.651 132.994 168.94 130.729 166.987 127.719C165.138 124.828 164.177 121.286 164.104 117.093Z" fill="white"/>
<path d="M329.028 46.1256C328.698 46.1256 328.406 46.3358 328.301 46.6479L324.016 59.3514C323.911 59.6636 323.618 59.8737 323.289 59.8737H311.556C311.023 59.8737 310.652 59.3432 310.835 58.8424L332.034 0.911017C332.145 0.608446 332.433 0.407227 332.755 0.407227H345.307C345.63 0.407227 345.918 0.609072 346.029 0.912322L367.109 58.8437C367.291 59.3443 366.92 59.8737 366.388 59.8737H354.694C354.364 59.8737 354.072 59.6636 353.966 59.3514L349.682 46.6479C349.576 46.3358 349.284 46.1256 348.954 46.1256H329.028ZM331.998 35.3473C331.827 35.8455 332.197 36.3637 332.724 36.3637H345.303C345.828 36.3637 346.199 35.8474 346.03 35.3497L339.775 16.898C339.54 16.2044 338.559 16.2027 338.322 16.8956L331.998 35.3473Z" fill="white"/>
<path d="M272.384 30.1807C272.384 34.2481 272.885 37.7326 273.888 40.6341C274.919 43.5355 276.437 45.7591 278.444 47.3047C280.478 48.8504 282.986 49.6232 285.969 49.6232C288.274 49.6232 290.267 49.1758 291.948 48.2809C293.656 47.359 295.026 46.1116 296.056 44.5388C296.974 43.1381 297.612 41.5653 297.971 39.8203C298.047 39.448 298.371 39.1733 298.751 39.178L310.392 39.3226C310.826 39.328 311.171 39.6933 311.133 40.1264C310.912 42.6301 310.225 45.0229 309.072 47.3047C307.825 49.8266 306.089 52.0637 303.866 54.0161C301.642 55.9684 299.025 57.5141 296.016 58.653C293.006 59.7648 289.684 60.3206 286.05 60.3206C280.573 60.3206 275.882 59.0733 271.977 56.5786C268.072 54.0567 265.076 50.5451 262.988 46.0438C260.9 41.5154 259.856 36.2276 259.856 30.1807C259.856 24.1337 260.9 18.8595 262.988 14.3582C265.076 9.82973 268.072 6.30458 271.977 3.78275C275.882 1.26092 280.573 0 286.05 0C289.684 0 293.006 0.569446 296.016 1.70834C299.025 2.82012 301.642 4.3522 303.866 6.30458C306.089 8.25697 307.825 10.4941 309.072 13.0159C310.226 15.2985 310.913 17.6921 311.133 20.1967C311.171 20.6289 310.828 20.9937 310.394 21.0005L298.753 21.1812C298.372 21.1872 298.047 20.9121 297.97 20.5389C297.612 18.7948 296.974 17.2227 296.056 15.8225C295.026 14.2226 293.656 12.9752 291.948 12.0804C290.267 11.1584 288.274 10.6975 285.969 10.6975C282.986 10.6975 280.478 11.4703 278.444 13.0159C276.437 14.5616 274.919 16.7987 273.888 19.7272C272.885 22.6287 272.384 26.1132 272.384 30.1807Z" fill="white"/>
<path d="M243.058 1.17479C243.058 0.750876 243.401 0.407227 243.825 0.407227H254.818C255.242 0.407227 255.585 0.750876 255.585 1.17479V38.2347C255.585 45.2308 253.497 50.6677 249.322 54.5453C245.146 58.3959 239.071 60.3211 231.099 60.3211C223.127 60.3211 217.053 58.3959 212.877 54.5453C208.701 50.6677 206.613 45.2308 206.613 38.2347V1.17479C206.613 0.750877 206.957 0.407227 207.381 0.407227H218.333C218.757 0.407227 219.1 0.750876 219.1 1.17479V38.1941C219.1 41.4752 220.009 44.1055 221.825 46.085C223.669 48.0374 226.774 49.0135 231.14 49.0135C235.479 49.0135 238.543 48.0374 240.332 46.085C242.149 44.1055 243.058 41.4752 243.058 38.1941V1.17479Z" fill="white"/>
<path d="M203.523 49.2576C203.947 49.2576 204.29 49.6012 204.29 50.0252V59.1061C204.29 59.5301 203.947 59.8737 203.523 59.8737H167.108C166.684 59.8737 166.341 59.5301 166.341 59.1061V1.17479C166.341 0.750877 166.684 0.407227 167.108 0.407227H178.06C178.484 0.407227 178.828 0.750876 178.828 1.17479V48.49C178.828 48.9139 179.172 49.2576 179.596 49.2576H203.523Z" fill="white"/>
<path d="M95.4951 38.756C95.4951 39.9401 96.1761 41.0187 97.2451 41.5279L112.93 48.9987C113.777 49.4023 114.763 49.3962 115.605 48.9821L130.745 41.5378C131.796 41.0215 132.461 39.9529 132.461 38.7826V3.47943C132.461 1.78378 133.836 0.40918 135.531 0.40918H146.382C148.078 0.40918 149.452 1.78378 149.452 3.47943V133.931C149.452 135.626 148.078 137.001 146.382 137.001H57.3222C55.6265 137.001 54.252 135.626 54.252 133.931V98.5582C54.252 97.3879 53.5866 96.3194 52.5364 95.803L37.5463 88.4329C36.7041 88.0188 35.7187 88.0127 34.8714 88.4162L19.3409 95.813C18.2718 96.3222 17.5908 97.4008 17.5908 98.5849V133.931C17.5908 135.626 16.2162 137.001 14.5206 137.001H3.07025C1.3746 137.001 0 135.626 0 133.931V3.47943C0 1.78378 1.3746 0.40918 3.07025 0.40918H92.4249C94.1205 0.40918 95.4951 1.78378 95.4951 3.47943V38.756ZM17.1416 54.1447C17.1416 55.2824 17.7708 56.3269 18.7765 56.8588L92.3768 95.7819C93.3826 96.3138 94.0117 97.3582 94.0117 98.496V116.858C94.0117 118.554 95.3863 119.929 97.082 119.929H129.376C131.072 119.929 132.446 118.554 132.446 116.858V83.1234C132.446 81.9849 131.816 80.9398 130.809 80.4083L57.3614 41.6317C56.3546 41.1002 55.7246 40.0552 55.7246 38.9166V20.6288C55.7246 18.9332 54.35 17.5586 52.6544 17.5586H20.2119C18.5162 17.5586 17.1416 18.9332 17.1416 20.6288V54.1447Z" fill="white"/>
</svg>
