<svg width="485" height="485" viewBox="0 0 485 485" fill="none" xmlns="http://www.w3.org/2000/svg">
<rect width="485" height="485" fill="black"/>
<path d="M296.929 164.55C296.929 167.624 298.697 170.424 301.472 171.746L342.191 191.141C344.391 192.189 346.949 192.173 349.136 191.098L388.443 171.772C391.169 170.431 392.896 167.657 392.896 164.619V72.9708C392.896 68.5687 396.465 65 400.867 65H429.029C433.431 65 437 68.5687 437 72.9708V411.641C437 416.043 433.431 419.611 429.029 419.611H197.829C193.427 419.611 189.858 416.043 189.858 411.641V319.806C189.858 316.768 188.131 313.994 185.404 312.653L146.486 293.518C144.3 292.443 141.741 292.427 139.542 293.475L99.2239 312.679C96.4485 314.001 94.6807 316.801 94.6807 319.875V411.641C94.6807 416.043 91.112 419.611 86.7098 419.611H56.9708C52.5687 419.611 49 416.043 49 411.641V72.9708C49 68.5687 52.5687 65 56.9708 65H288.958C293.36 65 296.929 68.5687 296.929 72.9708V164.55ZM93.5078 204.499C93.5078 207.453 95.1412 210.165 97.7523 211.545L288.829 312.595C291.44 313.976 293.073 316.688 293.073 319.641V367.314C293.073 371.716 296.642 375.285 301.044 375.285H384.885C389.287 375.285 392.855 371.716 392.855 367.314V279.732C392.855 276.776 391.22 274.063 388.606 272.683L197.923 172.015C195.309 170.635 193.674 167.922 193.674 164.966V117.489C193.674 113.087 190.105 109.519 185.703 109.519H101.479C97.0765 109.519 93.5078 113.087 93.5078 117.489V204.499Z" fill="white"/>
</svg>
